<?xml version="1.0" standalone="no"?>
<!DOCTYPE svg PUBLIC "-//W3C//DTD SVG 20010904//EN"
 "http://www.w3.org/TR/2001/REC-SVG-20010904/DTD/svg10.dtd">
<svg version="1.0" xmlns="http://www.w3.org/2000/svg"
 width="16.000000pt" height="16.000000pt" viewBox="0 0 16.000000 16.000000"
 preserveAspectRatio="xMidYMid meet">
<metadata>
Created by potrace 1.11, written by Peter Selinger 2001-2013
</metadata>
<g transform="translate(0.000000,16.000000) scale(0.022857,-0.022857)"
fill="#000000" stroke="none">
<path d="M118 432 c-28 -14 -33 -22 -33 -52 0 -32 3 -36 43 -50 23 -8 42 -18
42 -22 0 -11 -13 -10 -45 2 -20 8 -29 6 -44 -9 -19 -19 -19 -20 20 -35 50 -20
93 -20 110 0 11 13 14 13 20 1 7 -11 39 -14 154 -14 80 0 146 4 146 9 6 37 3
43 -23 42 l-28 0 30 29 c17 16 30 33 30 38 0 20 -24 59 -37 59 -7 0 -13 5 -13
11 0 16 -52 7 -76 -14 -18 -15 -22 -16 -27 -4 -4 10 -19 14 -51 12 -24 -1 -50
1 -57 6 -7 4 -22 1 -33 -6 -16 -10 -27 -10 -46 -3 -40 17 -47 17 -82 0z m112
-52 c0 -27 -2 -30 -19 -20 -11 5 -29 10 -40 10 -11 0 -23 5 -27 11 -5 9 3 10
30 5 28 -5 38 -3 42 9 9 23 14 18 14 -15z m212 -2 c16 16 28 15 28 -2 0 -25
-90 -72 -133 -70 -55 2 -58 14 -4 14 26 0 47 3 48 8 0 4 2 15 4 25 3 14 -5 17
-46 17 -31 0 -48 4 -44 10 3 5 24 9 46 8 21 -1 42 2 46 5 3 4 15 -1 25 -10 14
-13 21 -14 30 -5z"/>
<path d="M542 417 c12 -39 17 -39 68 3 l25 20 -42 -3 c-23 -2 -47 1 -52 6 -6
6 -6 -4 1 -26z"/>
</g>
</svg>
